REM MD5 d90d59ffce104a91ac729edae1697a13
FILE "Catan - Die erste Insel (Germany).bin" BINARY
  TRACK 01 MODE2/2352
    INDEX 01 00:00:00
  TRACK 02 AUDIO
    INDEX 00 25:06:01
    INDEX 01 25:08:01
  TRACK 03 AUDIO
    INDEX 00 27:44:12
    INDEX 01 27:46:12
REM LEADOUT 30:46:12
